#!OML:ASF F:\VICON\USERDATA\INSTALL\rory3\rory3.ASF
:FULLY-SPECIFIED
:DEGREES
56
root 1.53082 16.2193 -31.699 24.0009 10.5822 -4.11411
lowerback -0.226392 -1.62068 2.24331
upperback -9.80383 -1.84325 2.52814
thorax -10.2583 -0.957759 1.60574
lowerneck -9.4709 -2.3045 -1.36838
upperneck 36.5512 -5.56987 6.80919
head 14.3825 -1.69783 2.22238
rclavicle -7.50102e-016 -1.13307e-014
rhumerus 62.2916 -26.2287 -24.5657
rradius 45.1542
rwrist -14.3666
rhand 2.0345 9.78634
rfingers 7.12502
rthumb 27.5376 -18.2196
lclavicle -7.50102e-016 -1.13307e-014
lhumerus 82.6468 23.6457 29.052
lradius 37.3538
lwrist -18.4986
lhand 1.73177 14.8487
lfingers 7.12502
lthumb 27.248 42.9004
rfemur -77.3814 -19.4554 51.9165
rtibia 44.5596
rfoot 4.23085 -22.8886
rtoes 60.0571
lfemur -36.5727 -5.75542 -22.7917
ltibia 36.9309
lfoot -39.5041 24.5367
ltoes -20.2149
57
root 1.51778 16.2393 -31.6447 23.356 11.8135 -3.76706
lowerback 0.263493 -1.90475 2.25766
upperback -9.52782 -2.22347 2.44369
thorax -10.2404 -1.14869 1.55021
lowerneck -8.30909 -2.44696 -1.13125
upperneck 35.828 -5.79292 6.92268
head 13.7963 -1.78809 2.18315
rclavicle 1.00479e-015 6.38596e-015
rhumerus 60.8588 -25.5803 -23.8426
rradius 45.1039
rwrist -14.6395
rhand 1.67601 10.0395
rfingers 7.12502
rthumb 27.1947 -18.0206
lclavicle 1.00479e-015 6.38596e-015
lhumerus 82.773 22.6005 29.4211
lradius 36.9056
lwrist -19.2786
lhand 1.68055 14.839
lfingers 7.12502
lthumb 27.199 42.8984
rfemur -77.3354 -21.4428 52.5577
rtibia 44.3879
rfoot 4.51702 -22.4302
rtoes 60.3296
lfemur -35.675 -5.75791 -22.9173
ltibia 37.104
lfoot -38.9204 23.9095
ltoes -21.4436
58
root 1.51317 16.2329 -31.6245 23.6698 11.6562 -3.72691
lowerback 0.52465 -1.93222 2.20523
upperback -9.3256 -2.24734 2.61612
thorax -10.1595 -1.14739 1.76837
lowerneck -8.95935 -2.42832 -1.43604
upperneck 35.7198 -5.72016 6.97993
head 13.8982 -1.77889 2.26155
rclavicle 2.11209e-014 1.4561e-014
rhumerus 60.7812 -25.1389 -24.0615
rradius 44.9764
rwrist -14.5358
rhand 1.28902 10.1395
rfingers 7.12502
rthumb 26.8244 -17.9779
lclavicle 2.11209e-014 1.4561e-014
lhumerus 82.431 22.5466 29.4731
lradius 36.3664
lwrist -19.7633
lhand 1.57481 14.9076
lfingers 7.12502
lthumb 27.0979 42.9828
rfemur -77.9095 -21.5652 53.1542
rtibia 44.3499
rfoot 5.01452 -22.2414
rtoes 60.6793
lfemur -35.9226 -6.03315 -22.8725
ltibia 37.0401
lfoot -39.1586 24.1519
ltoes -19.6126
59
root 1.50515 16.2263 -31.5971 23.9485 11.5685 -3.55897
lowerback 0.548609 -1.81051 1.95346
upperback -9.07805 -2.10378 2.61958
thorax -9.88475 -1.05678 1.88856
lowerneck -9.10972 -2.58262 -1.43286
upperneck 35.3609 -5.95103 7.06956
head 13.7873 -1.87076 2.25238
rclavicle -5.56597e-015 1.799e-014
rhumerus 60.1508 -24.9199 -23.9911
rradius 44.8882
rwrist -14.5636
rhand 1.32798 10.0248
rfingers 7.12502
rthumb 26.8617 -18.0869
lclavicle -5.56597e-015 1.799e-014
lhumerus 82.7062 22.111 29.9228
lradius 35.7315
lwrist -20.2519
lhand 1.2983 14.9577
lfingers 7.12502
lthumb 26.8333 43.0738
rfemur -78.5064 -21.7873 53.6843
rtibia 44.3323
rfoot 5.70136 -22.042
rtoes 60.5902
lfemur -36.0722 -6.37793 -22.9086
ltibia 36.9685
lfoot -39.5 24.2884
ltoes -17.9551
60
root 1.50077 16.2168 -31.5749 24.3202 11.731 -3.40346
lowerback 0.727799 -1.92295 1.88872
upperback -8.88715 -2.24723 2.78477
thorax -9.76653 -1.11489 2.1132
lowerneck -9.66387 -2.58192 -1.56711
upperneck 35.201 -5.90617 7.04504
head 13.8383 -1.86358 2.26234
rclavicle 1.4387e-014 -1.799e-014
rhumerus 60.1434 -24.5049 -24.4745
rradius 44.8063
rwrist -14.5659
rhand 1.37347 10.0031
rfingers 7.12502
rthumb 26.9052 -18.1019
lclavicle 1.4387e-014 -1.799e-014
lhumerus 82.1602 22.0499 29.5579
lradius 35.2885
lwrist -20.4214
lhand 1.13446 15.2337
lfingers 7.12502
lthumb 26.6765 43.3738
rfemur -79.3465 -22.1497 54.4033
rtibia 44.2613
rfoot 6.52694 -22.0024
rtoes 60.3552
lfemur -36.3993 -6.89521 -22.8617
ltibia 36.968
lfoot -39.8866 24.2635
ltoes -16.6623
61
root 1.48821 16.2087 -31.5557 24.6232 11.9669 -3.44968
lowerback 0.931033 -1.94174 1.9326
upperback -8.66684 -2.25728 2.94015
thorax -9.63748 -1.11655 2.25446
lowerneck -10.0045 -2.6736 -1.53455
upperneck 34.8546 -6.02397 7.0418
head 13.7644 -1.91047 2.22444
rclavicle -5.04913e-014 3.35946e-014
rhumerus 59.5316 -24.1479 -24.3611
rradius 44.7663
rwrist -14.7186
rhand 0.959406 10.182
rfingers 7.12502
rthumb 26.509 -17.9835
lclavicle -5.04913e-014 3.35946e-014
lhumerus 81.9303 21.7945 29.4991
lradius 34.8197
lwrist -20.8711
lhand 1.00974 15.3346
lfingers 7.12502
lthumb 26.5572 43.4928
rfemur -80.067 -22.4962 55.3176
rtibia 44.1814
rfoot 7.11985 -21.9508
rtoes 60.4832
lfemur -36.7357 -7.07546 -22.6415
ltibia 36.9815
lfoot -39.9532 24.0023
ltoes -15.8687
62
root 1.47188 16.2214 -31.5127 24.3673 12.735 -3.21366
lowerback 1.41837 -2.20548 1.82028
upperback -8.23084 -2.60382 3.12616
thorax -9.42081 -1.27112 2.55025
lowerneck -10.2446 -2.71459 -1.59731
upperneck 34.4871 -6.03705 7.03155
head 13.6548 -1.92835 2.21658
rclavicle -1.69215e-014 2.127e-014
rhumerus 58.9824 -23.6527 -24.1953
rradius 44.668
rwrist -14.9353
rhand 0.51087 10.2654
rfingers 7.12502
rthumb 26.0796 -17.9642
lclavicle -1.69215e-014 2.127e-014
lhumerus 81.6902 21.5239 29.5604
lradius 34.3571
lwrist -21.2476
lhand 1.06216 15.4785
lfingers 7.12502
lthumb 26.6073 43.6291
rfemur -80.4147 -23.7831 56.0362
rtibia 44.1908
rfoot 7.66195 -21.6241
rtoes 60.525
lfemur -36.2421 -7.09959 -22.7108
ltibia 36.9368
lfoot -39.386 23.7604
ltoes -16.3461
